<svg width="774" height="521" viewBox="0 0 774 521" fill="none" xmlns="http://www.w3.org/2000/svg">
<g clip-path="url(#clip0_250_660)">
<path d="M667.624 515.108C656.46 505.681 649.679 490.788 651.457 476.291C653.235 461.793 664.25 448.465 678.537 445.386C692.825 442.307 709.112 450.829 713.451 464.777C715.84 437.886 718.592 409.869 732.898 386.969C745.851 366.233 768.288 351.396 792.603 348.742C816.919 346.088 842.52 356.113 857.685 375.293C872.85 394.472 876.563 422.356 865.942 444.376C858.118 460.597 843.703 472.67 828.6 482.491C779.796 513.96 721.262 526.757 663.768 518.528L667.624 515.108Z" fill="#F2F2F2"/>
<path d="M833.64 356.669C813.576 373 795.17 391.266 778.688 411.201C752.893 442.293 732.019 477.153 716.794 514.566C715.679 517.295 720.114 518.483 721.216 515.784C746.127 454.98 785.895 401.388 836.883 359.909C839.173 358.046 835.911 354.821 833.64 356.669Z" fill="white"/>
<path d="M280.711 512.547C296.045 499.598 305.358 479.143 302.916 459.231C300.473 439.318 285.345 421.011 265.721 416.783C246.097 412.554 223.727 424.26 217.767 443.417C214.486 406.482 210.706 368 191.057 336.547C173.265 308.067 142.449 287.688 109.051 284.043C75.6536 280.397 40.4901 294.166 19.6612 320.51C-1.16777 346.854 -6.26765 385.151 8.32039 415.396C19.0669 437.676 38.8657 454.257 59.61 467.747C125.791 510.783 207.889 528.732 286.007 517.243" fill="#F2F2F2"/>
<path d="M52.6876 294.93C80.2448 317.361 105.526 342.449 128.164 369.83C150.807 397.183 170.741 426.667 187.687 457.866C197.159 475.368 205.668 493.373 213.176 511.802C214.707 515.551 208.615 517.182 207.102 513.475C193.803 480.986 177.351 449.877 157.98 420.595C138.703 391.419 116.64 364.18 92.1002 339.262C78.2204 325.175 63.576 311.861 48.2333 299.381C45.0885 296.822 49.5687 292.392 52.6876 294.93Z" fill="white"/>
<path d="M625.936 519.86H260.097V144.739C260.097 64.9296 325.068 0 404.928 0H481.104C560.964 0 625.936 64.9296 625.936 144.739V519.86Z" fill="#F2F2F2"/>
<path d="M549.761 519.86H260.097V144.739C260.017 114.158 269.707 84.3497 287.756 59.6543C288.421 58.748 289.085 57.8535 289.769 56.9687C298.499 45.5258 308.889 35.4483 320.594 27.0687C321.255 26.5879 321.919 26.1155 322.593 25.643C332.387 18.8692 342.983 13.3318 354.137 9.15674C354.8 8.90583 355.474 8.65443 356.148 8.4133C366.237 4.81543 376.694 2.35091 387.328 1.06523C387.988 0.975234 388.664 0.904808 389.341 0.834382C399.704 -0.272919 410.155 -0.272919 420.518 0.834382C421.193 0.904808 421.87 0.975225 422.537 1.0662C433.168 2.35195 443.623 4.81618 453.709 8.41335C454.383 8.65448 455.058 8.90586 455.722 9.15726C466.739 13.2796 477.21 18.7344 486.9 25.3999C487.573 25.8621 488.247 26.3346 488.911 26.807C495.472 31.4875 501.635 36.7019 507.337 42.3968C511.909 46.9648 516.17 51.834 520.091 56.9717C520.773 57.8535 521.436 58.7481 522.101 59.6529C540.15 84.3486 549.841 114.157 549.761 144.739V519.86Z" fill="#CCCCCC"/>
<path d="M526.207 352.082C535.064 352.082 542.244 344.907 542.244 336.056C542.244 327.204 535.064 320.029 526.207 320.029C517.35 320.029 510.17 327.204 510.17 336.056C510.17 344.907 517.35 352.082 526.207 352.082Z" fill="white"/>
<path d="M595.966 508.624H583.678L577.831 461.258L595.968 461.259L595.966 508.624Z" fill="#FFB8B8"/>
<path d="M574.9 505.115H598.598V520.027H559.979C559.979 518.068 560.365 516.129 561.115 514.32C561.865 512.511 562.964 510.867 564.35 509.482C565.735 508.098 567.38 506.999 569.19 506.25C571.001 505.501 572.941 505.115 574.9 505.115Z" fill="#2F2E41"/>
<path d="M657.106 508.624H644.818L638.972 461.258L657.108 461.259L657.106 508.624Z" fill="#FFB8B8"/>
<path d="M636.041 505.115H659.739V520.027H621.119C621.119 518.068 621.505 516.129 622.255 514.32C623.005 512.511 624.104 510.867 625.49 509.482C626.875 508.098 628.52 506.999 630.331 506.25C632.141 505.501 634.081 505.115 636.041 505.115Z" fill="#2F2E41"/>
<path d="M534.323 339.231C533.439 337.929 532.852 336.449 532.602 334.896C532.352 333.343 532.445 331.754 532.876 330.241C533.307 328.728 534.065 327.328 535.096 326.139C536.127 324.951 537.407 324.002 538.844 323.361L580.616 208.304L601.17 219.514L553.476 329.467C554.393 331.951 554.367 334.686 553.402 337.153C552.437 339.62 550.6 341.647 548.239 342.85C545.878 344.054 543.158 344.35 540.593 343.683C538.028 343.016 535.797 341.432 534.323 339.231Z" fill="#FFB8B8"/>
<path d="M650.829 360.85C649.464 360.068 648.286 358.996 647.38 357.709C646.474 356.423 645.861 354.954 645.585 353.405C645.308 351.856 645.375 350.266 645.78 348.746C646.185 347.226 646.919 345.813 647.93 344.607L634.989 222.896L658.38 223.964L663.759 343.683C665.673 345.513 666.85 347.983 667.065 350.623C667.279 353.262 666.518 355.889 664.924 358.005C663.33 360.122 661.015 361.58 658.418 362.104C655.82 362.629 653.12 362.182 650.829 360.85Z" fill="#FFB8B8"/>
<path d="M613.513 186.993C627.109 186.993 638.13 175.978 638.13 162.391C638.13 148.804 627.109 137.789 613.513 137.789C599.917 137.789 588.895 148.804 588.895 162.391C588.895 175.978 599.917 186.993 613.513 186.993Z" fill="#FFB8B8"/>
<path d="M650.672 333.17H576.455L576.544 332.592C576.678 331.73 589.771 246.01 580.114 217.967C579.145 215.211 579.23 212.194 580.353 209.498C581.477 206.801 583.558 204.614 586.197 203.359C600.001 196.863 626.498 188.864 648.861 208.277C652.152 211.18 654.722 214.809 656.368 218.876C658.013 222.944 658.689 227.338 658.343 231.711L650.672 333.17Z" fill="white"/>
<path d="M590.709 258.678L557.296 251.904L572.958 214.813C573.895 211.22 576.22 208.146 579.423 206.264C582.625 204.382 586.443 203.847 590.04 204.775C593.638 205.703 596.719 208.019 598.61 211.214C600.501 214.41 601.046 218.225 600.126 221.822L590.709 258.678Z" fill="white"/>
<path d="M633.503 271.257L631.495 225.239C629.971 216.589 634.927 208.411 642.547 207.074C650.17 205.743 657.614 211.742 659.144 220.456L666.694 263.455L633.503 271.257Z" fill="white"/>
<path d="M648.203 327.66C660.145 373.112 661.448 430.901 658.226 493.935L642.189 491.932L613.122 371.733L597.086 493.935L579.044 492.934C573.654 426.795 568.406 370.015 577.04 332.669L648.203 327.66Z" fill="#2F2E41"/>
<path d="M629.733 181.404C625.141 186.293 616.612 183.668 616.014 176.989C615.967 176.471 615.97 175.949 616.024 175.431C616.333 172.473 618.043 169.787 617.633 166.663C617.541 165.886 617.251 165.145 616.791 164.511C613.132 159.613 604.541 166.701 601.087 162.268C598.969 159.549 601.459 155.269 599.834 152.231C597.689 148.22 591.335 150.199 587.351 148.002C582.918 145.559 583.183 138.762 586.101 134.628C589.66 129.586 595.9 126.895 602.061 126.508C608.223 126.12 614.342 127.784 620.095 130.025C626.631 132.57 633.113 136.088 637.135 141.832C642.026 148.817 642.497 158.207 640.051 166.374C638.562 171.342 633.484 177.412 629.733 181.404Z" fill="#2F2E41"/>
<path d="M841.913 520.504H101.921C101.605 520.503 101.303 520.377 101.08 520.154C100.857 519.93 100.731 519.627 100.731 519.311C100.731 518.996 100.857 518.693 101.08 518.469C101.303 518.246 101.605 518.12 101.921 518.119H841.913C842.229 518.12 842.531 518.246 842.754 518.469C842.977 518.693 843.103 518.996 843.103 519.311C843.103 519.627 842.977 519.93 842.754 520.154C842.531 520.377 842.229 520.503 841.913 520.504Z" fill="#3F3D56"/>
<path d="M470.078 411.18H339.779C338.063 411.189 336.414 410.518 335.192 409.313C333.971 408.108 333.278 406.469 333.264 404.754V114.104C333.278 112.389 333.971 110.749 335.192 109.545C336.414 108.34 338.063 107.669 339.779 107.678H470.078C471.794 107.669 473.444 108.34 474.665 109.545C475.887 110.749 476.58 112.389 476.593 114.104V404.754C476.58 406.469 475.887 408.108 474.665 409.313C473.444 410.518 471.794 411.189 470.078 411.18Z" fill="white"/>
<path d="M476.593 201.723H333.264V203.726H476.593V201.723Z" fill="#CCCCCC"/>
<path d="M477.094 316.023H333.766V318.026H477.094V316.023Z" fill="#CCCCCC"/>
<path d="M380.372 107.678H378.368V412.181H380.372V107.678Z" fill="#CCCCCC"/>
<path d="M430.487 107.678H428.483V412.181H430.487V107.678Z" fill="#CCCCCC"/>
</g>
<defs>
<clipPath id="clip0_250_660">
<rect width="872" height="521" fill="white"/>
</clipPath>
</defs>
</svg>
